<svg width="109" height="589" viewBox="0 0 109 589" fill="none" xmlns="http://www.w3.org/2000/svg">
<path d="M86.75 25.95H65.45V60.3H45.65V25.95H22.55V64.8H2V0.3L107.3 0.3V64.8H86.75V25.95ZM2 175.652V150.002L66.95 107.102L2 107.102V81.4523L107.3 81.4523V107.102L42.05 150.002H107.3V175.652H2ZM54.8 189.895C65.2 189.895 74.45 192.145 82.55 196.645C90.75 201.145 97.1 207.395 101.6 215.395C106.2 223.495 108.5 232.645 108.5 242.845C108.5 255.345 105.2 266.045 98.6 274.945C92 283.845 83 289.795 71.6 292.795V264.595C76 262.495 79.35 259.495 81.65 255.595C83.95 251.795 85.1 247.445 85.1 242.545C85.1 234.645 82.35 228.245 76.85 223.345C71.35 218.445 64 215.995 54.8 215.995C45.6 215.995 38.25 218.445 32.75 223.345C27.25 228.245 24.5 234.645 24.5 242.545C24.5 247.445 25.65 251.795 27.95 255.595C30.25 259.495 33.6 262.495 38 264.595V292.795C26.6 289.795 17.6 283.845 11 274.945C4.5 266.045 1.25 255.345 1.25 242.845C1.25 232.645 3.5 223.495 8 215.395C12.6 207.395 18.95 201.145 27.05 196.645C35.15 192.145 44.4 189.895 54.8 189.895ZM0.95 358.303C0.95 348.403 3.25 339.303 7.85 331.003C12.45 322.803 18.85 316.253 27.05 311.353C35.35 306.553 44.65 304.153 54.95 304.153C65.25 304.153 74.5 306.553 82.7 311.353C90.9 316.253 97.3 322.803 101.9 331.003C106.5 339.303 108.8 348.403 108.8 358.303C108.8 368.203 106.5 377.253 101.9 385.453C97.3 393.753 90.9 400.253 82.7 404.953C74.5 409.753 65.25 412.153 54.95 412.153C44.65 412.153 35.35 409.753 27.05 404.953C18.85 400.153 12.45 393.653 7.85 385.453C3.25 377.253 0.95 368.203 0.95 358.303ZM24.35 358.303C24.35 366.703 27.15 373.403 32.75 378.403C38.35 383.503 45.75 386.053 54.95 386.053C64.25 386.053 71.65 383.503 77.15 378.403C82.75 373.403 85.55 366.703 85.55 358.303C85.55 349.803 82.8 343.003 77.3 337.903C71.8 332.903 64.35 330.403 54.95 330.403C45.65 330.403 38.2 332.903 32.6 337.903C27.1 343.003 24.35 349.803 24.35 358.303ZM2 480.123L41.75 458.223V452.073H2V426.423H107.3V469.473C107.3 477.773 105.85 484.823 102.95 490.623C100.05 496.523 96.05 500.923 90.95 503.823C85.95 506.723 80.35 508.173 74.15 508.173C67.15 508.173 60.9 506.173 55.4 502.173C49.9 498.273 46 492.473 43.7 484.773L2 509.073V480.123ZM59.9 452.073V467.973C59.9 472.673 61.05 476.173 63.35 478.473C65.65 480.873 68.9 482.073 73.1 482.073C77.1 482.073 80.25 480.873 82.55 478.473C84.85 476.173 86 472.673 86 467.973V452.073H59.9ZM86.75 549.925H65.45V584.275H45.65V549.925H22.55V588.775H2V524.275H107.3V588.775H86.75V549.925Z" fill="white" fill-opacity="0.02"/>
</svg>
